<?xml version="1.0" encoding="UTF-8"?><svg id="Laag_1" xmlns="http://www.w3.org/2000/svg" viewBox="0 0 1091.29 645.26"><defs><style>.cls-1,.cls-2{fill:none;}.cls-1,.cls-3{isolation:isolate;}.cls-3{fill:#050505;font-family:SuperCorn, 'Super Corn';font-size:51.87px;}.cls-4{fill:#f6a10e;}</style></defs><g id="Ellipse_2"><circle class="cls-4" cx="302.05" cy="248.45" r="114.55"/><circle class="cls-2" cx="302.05" cy="248.45" r="113.47"/></g><g id="Ellipse_3"><circle class="cls-4" cx="214.23" cy="515.55" r="129.67"/><circle class="cls-2" cx="214.23" cy="515.55" r="128.59"/></g><g id="Ellipse_4"><circle class="cls-4" cx="496.53" cy="446.08" r="94.01"/><circle class="cls-2" cx="496.53" cy="446.08" r="92.93"/></g><g id="Ellipse_5"><circle class="cls-4" cx="565.51" cy="202.35" r="81.05"/><circle class="cls-2" cx="565.51" cy="202.35" r="79.97"/></g><g id="Ellipse_6"><circle class="cls-4" cx="565.51" cy="202.35" r="81.05"/><circle class="cls-2" cx="565.51" cy="202.35" r="79.97"/></g><g id="Ellipse_7"><circle class="cls-4" cx="730.06" cy="339.69" r="77.8"/><circle class="cls-2" cx="730.06" cy="339.69" r="76.72"/></g><g id="Ellipse_8"><circle class="cls-4" cx="737.99" cy="172.44" r="67"/><circle class="cls-2" cx="737.99" cy="172.44" r="65.92"/></g><g id="Ellipse_9"><circle class="cls-4" cx="980.93" cy="190.84" r="67"/><circle class="cls-2" cx="980.93" cy="190.84" r="65.92"/></g><g id="Ellipse_10"><circle class="cls-4" cx="190.93" cy="96.53" r="67"/><circle class="cls-2" cx="190.93" cy="96.53" r="65.92"/></g><g id="Ellipse_11"><circle class="cls-4" cx="876.04" cy="297.91" r="38.9"/><circle class="cls-2" cx="876.04" cy="297.91" r="37.82"/></g><g id="Ellipse_12"><circle class="cls-4" cx="624.57" cy="63.03" r="38.9"/><circle class="cls-2" cx="624.57" cy="63.03" r="37.82"/></g><g id="Ellipse_13"><circle class="cls-4" cx="439.44" cy="68.85" r="60.51"/><circle class="cls-2" cx="439.44" cy="68.85" r="59.43"/></g><g id="Ellipse_14"><circle cx="980.93" cy="190.84" r="45.39"/><circle class="cls-2" cx="980.93" cy="190.84" r="44.31"/></g><g id="Ellipse_15"><circle cx="497.3" cy="448.1" r="68.08"/><circle class="cls-2" cx="497.3" cy="448.1" r="67"/></g><g id="Ellipse_16"><circle cx="623.17" cy="62.4" r="22.69"/><circle class="cls-2" cx="623.17" cy="62.4" r="21.61"/></g><g id="Ellipse_17"><circle class="cls-4" cx="679.09" cy="42.24" r="6.48"/><circle class="cls-2" cx="679.09" cy="42.24" r="5.4"/></g><g id="Ellipse_18"><circle class="cls-4" cx="570.04" cy="83.82" r="6.48"/><circle class="cls-2" cx="570.04" cy="83.82" r="5.4"/></g><g id="Ellipse_19"><circle class="cls-4" cx="646.13" cy="119.57" r="6.48"/><circle class="cls-2" cx="646.13" cy="119.57" r="5.4"/></g><g id="Ellipse_20"><circle class="cls-4" cx="603.01" cy="6.49" r="6.48"/><circle class="cls-2" cx="603.01" cy="6.49" r="5.4"/></g><g id="Ellipse_21"><circle class="cls-4" cx="600.71" cy="116.29" r="6.48"/><circle class="cls-2" cx="600.71" cy="116.29" r="5.4"/></g><g id="Ellipse_22"><circle class="cls-4" cx="648.42" cy="9.77" r="6.48"/><circle class="cls-2" cx="648.42" cy="9.77" r="5.4"/></g><g id="Ellipse_23"><circle class="cls-4" cx="569.34" cy="38.29" r="6.48"/><circle class="cls-2" cx="569.34" cy="38.29" r="5.4"/></g><g id="Ellipse_24"><circle class="cls-4" cx="679.8" cy="87.77" r="6.48"/><circle class="cls-2" cx="679.8" cy="87.77" r="5.4"/></g><g id="Ellipse_25"><circle class="cls-4" cx="631.98" cy="397.91" r="17.29"/><circle class="cls-2" cx="631.98" cy="397.91" r="16.21"/></g><g id="Ellipse_26"><circle class="cls-4" cx="366.66" cy="496.75" r="17.29"/><circle class="cls-2" cx="366.66" cy="496.75" r="16.21"/></g><g id="Ellipse_27"><circle class="cls-4" cx="445.85" cy="316.21" r="17.29"/><circle class="cls-2" cx="445.85" cy="316.21" r="16.21"/></g><g id="Ellipse_29"><circle class="cls-4" cx="371.62" cy="386.25" r="17.29"/><circle class="cls-2" cx="371.62" cy="386.25" r="16.21"/></g><g id="Ellipse_30"><circle class="cls-4" cx="553.65" cy="316.61" r="17.29"/><circle class="cls-2" cx="553.65" cy="316.61" r="16.21"/></g><g id="Ellipse_32"><circle class="cls-4" cx="1077.24" cy="155.27" r="14.05"/><circle class="cls-2" cx="1077.24" cy="155.27" r="12.97"/></g><g id="Ellipse_33"><circle class="cls-4" cx="887.41" cy="227.65" r="14.05"/><circle class="cls-2" cx="887.41" cy="227.65" r="12.97"/></g><g id="Ellipse_34"><circle class="cls-4" cx="934.88" cy="73.09" r="14.05"/><circle class="cls-2" cx="934.88" cy="73.09" r="12.97"/></g><g id="Ellipse_35"><circle class="cls-4" cx="1017.27" cy="289.16" r="14.05"/><circle class="cls-2" cx="1017.27" cy="289.16" r="12.97"/></g><g id="Ellipse_36"><circle class="cls-4" cx="1075.74" cy="231.35" r="14.05"/><circle class="cls-2" cx="1075.74" cy="231.35" r="12.97"/></g><g id="Ellipse_37"><circle class="cls-4" cx="888.91" cy="151.55" r="14.05"/><circle class="cls-2" cx="888.91" cy="151.55" r="12.97"/></g><g id="Ellipse_38"><circle class="cls-4" cx="1021.08" cy="95.2" r="14.05"/><circle class="cls-2" cx="1021.08" cy="95.2" r="12.97"/></g><g id="Ellipse_39"><circle class="cls-4" cx="939.59" cy="286" r="14.05"/><circle class="cls-2" cx="939.59" cy="286" r="12.97"/></g><g id="_5.0" class="cls-1"><text class="cls-3" transform="translate(583.15 166.72) rotate(69.13)"><tspan x="0" y="0">5.0</tspan></text></g><g id="Ellipse_49"><circle class="cls-4" cx="302.05" cy="248.45" r="114.55"/><circle class="cls-2" cx="302.05" cy="248.45" r="113.47"/></g><g id="Ellipse_50"><circle class="cls-4" cx="214.23" cy="515.55" r="129.67"/><circle class="cls-2" cx="214.23" cy="515.55" r="128.59"/></g><g id="Ellipse_51"><circle class="cls-4" cx="496.53" cy="446.08" r="94.01"/><circle class="cls-2" cx="496.53" cy="446.08" r="92.93"/></g><g id="Ellipse_52"><circle class="cls-4" cx="565.51" cy="202.35" r="81.05"/><circle class="cls-2" cx="565.51" cy="202.35" r="79.97"/></g><g id="Ellipse_53"><circle class="cls-4" cx="565.51" cy="202.35" r="81.05"/><circle class="cls-2" cx="565.51" cy="202.35" r="79.97"/></g><g id="Ellipse_54"><circle class="cls-4" cx="730.06" cy="339.69" r="77.8"/><circle class="cls-2" cx="730.06" cy="339.69" r="76.72"/></g><g id="Ellipse_55"><circle class="cls-4" cx="737.99" cy="172.44" r="67"/><circle class="cls-2" cx="737.99" cy="172.44" r="65.92"/></g><g id="Ellipse_56"><circle class="cls-4" cx="980.93" cy="190.84" r="67"/><circle class="cls-2" cx="980.93" cy="190.84" r="65.92"/></g><g id="Ellipse_57"><circle class="cls-4" cx="67.02" cy="287.18" r="67"/><circle class="cls-2" cx="67.02" cy="287.18" r="65.92"/></g><g id="Ellipse_58"><circle class="cls-4" cx="876.04" cy="297.91" r="38.9"/><circle class="cls-2" cx="876.04" cy="297.91" r="37.82"/></g><g id="Ellipse_59"><circle class="cls-4" cx="624.57" cy="63.03" r="38.9"/><circle class="cls-2" cx="624.57" cy="63.03" r="37.82"/></g><g id="Ellipse_60"><circle class="cls-4" cx="439.44" cy="68.85" r="60.51"/><circle class="cls-2" cx="439.44" cy="68.85" r="59.43"/></g><g id="Ellipse_61"><circle cx="980.93" cy="190.84" r="45.39"/><circle class="cls-2" cx="980.93" cy="190.84" r="44.31"/></g><g id="Ellipse_62"><circle cx="497.3" cy="448.1" r="68.08"/><circle class="cls-2" cx="497.3" cy="448.1" r="67"/></g><g id="Ellipse_63"><circle cx="623.17" cy="62.4" r="22.69"/><circle class="cls-2" cx="623.17" cy="62.4" r="21.61"/></g><g id="Ellipse_64"><circle class="cls-4" cx="679.09" cy="42.24" r="6.48"/><circle class="cls-2" cx="679.09" cy="42.24" r="5.4"/></g><g id="Ellipse_65"><circle class="cls-4" cx="570.04" cy="83.82" r="6.48"/><circle class="cls-2" cx="570.04" cy="83.82" r="5.4"/></g><g id="Ellipse_66"><circle class="cls-4" cx="646.13" cy="119.57" r="6.48"/><circle class="cls-2" cx="646.13" cy="119.57" r="5.4"/></g><g id="Ellipse_67"><circle class="cls-4" cx="603.01" cy="6.49" r="6.48"/><circle class="cls-2" cx="603.01" cy="6.49" r="5.4"/></g><g id="Ellipse_69"><circle class="cls-4" cx="648.42" cy="9.77" r="6.48"/><circle class="cls-2" cx="648.42" cy="9.77" r="5.4"/></g><g id="Ellipse_70"><circle class="cls-4" cx="569.34" cy="38.29" r="6.48"/><circle class="cls-2" cx="569.34" cy="38.29" r="5.4"/></g><g id="Ellipse_71"><circle class="cls-4" cx="679.8" cy="87.77" r="6.48"/><circle class="cls-2" cx="679.8" cy="87.77" r="5.4"/></g><g id="Ellipse_72"><circle class="cls-4" cx="631.98" cy="397.91" r="17.29"/><circle class="cls-2" cx="631.98" cy="397.91" r="16.21"/></g><g id="Ellipse_73"><circle class="cls-4" cx="366.66" cy="496.75" r="17.29"/><circle class="cls-2" cx="366.66" cy="496.75" r="16.21"/></g><g id="Ellipse_74"><circle class="cls-4" cx="445.85" cy="316.21" r="17.29"/><circle class="cls-2" cx="445.85" cy="316.21" r="16.21"/></g><g id="Ellipse_75"><circle class="cls-4" cx="371.62" cy="386.25" r="17.29"/><circle class="cls-2" cx="371.62" cy="386.25" r="16.21"/></g><g id="Ellipse_76"><circle class="cls-4" cx="553.65" cy="316.61" r="17.29"/><circle class="cls-2" cx="553.65" cy="316.61" r="16.21"/></g><g id="Ellipse_77"><circle class="cls-4" cx="1077.24" cy="155.27" r="14.05"/><circle class="cls-2" cx="1077.24" cy="155.27" r="12.97"/></g><g id="Ellipse_78"><circle class="cls-4" cx="887.41" cy="227.65" r="14.05"/><circle class="cls-2" cx="887.41" cy="227.65" r="12.97"/></g><g id="Ellipse_80"><circle class="cls-4" cx="1017.27" cy="289.16" r="14.05"/><circle class="cls-2" cx="1017.27" cy="289.16" r="12.97"/></g><g id="Ellipse_81"><circle class="cls-4" cx="1075.74" cy="231.35" r="14.05"/><circle class="cls-2" cx="1075.74" cy="231.35" r="12.97"/></g><g id="Ellipse_82"><circle class="cls-4" cx="888.91" cy="151.55" r="14.05"/><circle class="cls-2" cx="888.91" cy="151.55" r="12.97"/></g><g id="Ellipse_83"><circle class="cls-4" cx="1021.08" cy="95.2" r="14.05"/><circle class="cls-2" cx="1021.08" cy="95.2" r="12.97"/></g><g id="Ellipse_84"><circle class="cls-4" cx="939.59" cy="286" r="14.05"/><circle class="cls-2" cx="939.59" cy="286" r="12.97"/></g></svg>