<?xml version="1.0" encoding="UTF-8"?>
<svg id="Laag_2" data-name="Laag 2" xmlns="http://www.w3.org/2000/svg" viewBox="0 0 642.63 377.18">
  <defs>
    <style>
      .cls-1 {
        fill: #c6743c;
        stroke: #91572f;
      }

      .cls-1, .cls-2, .cls-3 {
        stroke-width: 13px;
      }

      .cls-1, .cls-3 {
        stroke-linecap: round;
        stroke-linejoin: round;
      }

      .cls-2 {
        fill: #8abe28;
        stroke: #6b8d2c;
        stroke-miterlimit: 10;
      }

      .cls-3 {
        stroke: #a36b1a;
      }

      .cls-3, .cls-4 {
        fill: #f4b220;
      }

      .cls-4, .cls-5, .cls-6 {
        stroke-width: 0px;
      }

      .cls-5 {
        fill: #ab6535;
      }

      .cls-6 {
        fill: #bb8820;
      }
    </style>
  </defs>
  <g id="Laag_1-2" data-name="Laag 1">
    <g>
      <g>
        <g>
          <path class="cls-1" d="m208.83,252.77c8.12,2.31,16.29,4.48,24.36,6.97,14.61,4.52,29.63,7.96,44.76,8.34,15.36.39,30.7-2.7,45.74-6.4,15.62-3.84,31.05-8.92,47.25-9.57,5.74-.23,11.66.19,17.4,1.61,11.64,2.87,23.28,5.75,34.99,8.31,5.57,1.22,5.75,5.72,6.92,9.75,1.12,3.86-2.36,4.87-4.45,6.33-14.66,10.2-31.59,14.19-48.82,16.96-22.11,3.55-44.42,2.94-66.61,1.3-26.52-1.96-52.53-6.68-76.41-19.41-10.52-5.61-19.41-12.99-26.22-22.68.36-.5.72-1,1.08-1.5Z"/>
          <path class="cls-1" d="m454.22,269.65c4.21-1.43,7.62.08,10.9.58,20.42,3.08,39.97-1.68,59.35-6.67,34.44-8.87,67.28-21.73,96.61-42.35,3.48-2.45,5.58-1.9,8.21,1.19,11.56,13.56,8.08,35.66-7.47,47.16-9.34,6.91-19.96,10.64-31.11,13.3-28.81,6.88-58.12,6.23-87.33,5.17-13.01-.47-25.84-4.08-37.84-9.62-4.23-1.95-8.52-4.13-11.32-8.75Z"/>
          <path class="cls-1" d="m34.39,241.38c28.22,10.5,56.61,4.64,84.82,4.1,17.48-.34,34.96-.14,52.45-.1,5.76.01,9.63,2.17,11.55,8.33,1.46,4.68,4.49,8.96,7.29,13.11,2.2,3.27,1.57,4.7-1.85,6.34-14.17,6.79-29.25,10.94-44.67,12.16-20.87,1.65-41.94,1.99-62.53-3.5-18.2-4.86-34.7-12.27-44.05-30.08-1.5-2.86-3.23-5.72-3.01-10.35Z"/>
          <path class="cls-4" d="m537.29,325.08c.42.06.82-.01,1.2-.21-.39.15-.79.22-1.2.21Z"/>
          <path class="cls-5" d="m181.85,333.25c.23-.21.45-.2.65.02,0,0-.34.28-.34.28l-.31-.3Z"/>
        </g>
        <path class="cls-3" d="m572.29,141.62c-12.29,23.05-33.68,35.07-60.26,40.42-7.55,1.52-15.17,1.3-22.79,1.3-66.51,0-133.02,0-199.52-.02-1.96,0-3.92-.17-5.89-.27-45.94.09-91.89.68-137.82.02-16.64-.24-33.12-4.4-47.7-13-16.48-9.72-27.78-24.1-33.5-42.47-3.09-9.91-5.21-20.12-5.34-30.55-.29-23.68,8.63-43.48,26.33-59.07,22.75-20.05,49.86-28.74,79.55-24.96,30.46,3.87,55,20.21,74.58,43.58,15.5,18.51,21.98,40.36,21.67,64.34-.08,6.29,2.57,11.06,8.38,13.4,4.09,1.65,7.58-.48,10.52-3.41,1.28-1.27,2.04-2.67,2.13-4.59,1.43-31.34-7.16-59.41-26.97-83.95-5.07-6.28-10.97-11.65-17.51-16.98,12.78-8.74,26.6-13.71,41.03-16.48,22.15-4.26,44.24-3.18,65.4,5.07,29.83,11.64,52.21,31.64,64.48,61.63,6.08,14.85,6.63,30.75,6.26,46.67-.2,8.84,2.55,11.35,11.04,11.13,5.98-.15,9.48-3.36,9.82-9.73,1.86-34.74-6.23-66.29-30.39-92.47-2.75-2.98-2.88-3.82,1.17-5.58,7.41-3.23,14.89-5.93,22.48-8.13,0,0,171.68-38.48,142.87,124.08Z"/>
        <path class="cls-2" d="m633.09,167.36c3.05,12.65-7.41,22.49-16.72,30.35-23.75,20.05-51.95,31.53-81.17,40.77-13.39,4.23-27.04,7.58-40.93,9.93-5.68.96-11.31.25-14.73.56-24.28,1.01-44.97-5.96-66.04-10.9-11.58-2.72-23.22-5.56-35-6.95-13.28-1.56-26.17,2.2-39.1,5.18-22.32,5.16-44.45,11.93-67.86,10.07-15.18-1.2-29.63-5.57-44.08-9.8-21.62-6.34-43.1-12.5-66-12.75-24.7-.27-49.36.71-73.96,2.04-15.64.85-30.72,1.18-45.5-4.51-26.32-10.13-40.78-36.22-33.75-62.22,4.13-15.28,13.74-26.58,28.07-33.68,3.42-1.69,5.27-1.7,6.45,2.79,10.64,40.39,38.11,63.28,77.56,72.84,8.95,2.17,18.29,3.36,27.76,3.35,118.55-.16,237.11.14,355.66-.28,26.08-.09,48.58-10.84,68.03-28.3,7.82-7.02,14.25-14.78,19.13-23.4,0,0,32.54-25.09,42.16,14.9Z"/>
        <path class="cls-3" d="m600.69,309.83c-111.89,20.98-162.42-14.31-162.42-14.31-95.05,64.41-235.91,0-235.91,0-50.63,31.93-143.07,8.98-143.07,8.98,0,0,58.5,67.37,256.64,66.17,198.14-1.2,284.77-60.84,284.77-60.84Z"/>
      </g>
      <path class="cls-6" d="m120.33,25.69S8.07,176.55,265.94,178.2h-125.97s-69.5-3.04-74.49-79.61c0,0-6.2-51.69,54.86-72.9Z"/>
    </g>
  </g>
</svg>