<?xml version="1.0" encoding="UTF-8"?>
<svg id="Laag_2" data-name="Laag 2" xmlns="http://www.w3.org/2000/svg" viewBox="0 0 645.45 377.18">
  <defs>
    <style>
      .cls-1 {
        fill: #c6743c;
        stroke: #91572f;
      }

      .cls-1, .cls-2, .cls-3 {
        stroke-width: 13px;
      }

      .cls-1, .cls-3 {
        stroke-linecap: round;
        stroke-linejoin: round;
      }

      .cls-2 {
        fill: #8abe28;
        stroke: #6b8d2c;
        stroke-miterlimit: 10;
      }

      .cls-3 {
        stroke: #a36b1a;
      }

      .cls-3, .cls-4 {
        fill: #f4b220;
      }

      .cls-4, .cls-5, .cls-6 {
        stroke-width: 0px;
      }

      .cls-5 {
        fill: #ab6535;
      }

      .cls-6 {
        fill: #bb8820;
      }
    </style>
  </defs>
  <g id="Laag_1-2" data-name="Laag 1">
    <g>
      <g>
        <path class="cls-1" d="m208.83,252.77c8.12,2.31,16.29,4.48,24.36,6.97,14.61,4.52,29.63,7.96,44.76,8.34,15.36.39,30.7-2.7,45.74-6.4,15.62-3.84,31.05-8.92,47.25-9.57,5.74-.23,11.66.19,17.4,1.61,11.64,2.87,23.28,5.75,34.99,8.31,5.57,1.22,5.75,5.72,6.92,9.75,1.12,3.86-2.36,4.87-4.45,6.33-14.66,10.2-31.59,14.19-48.82,16.96-22.11,3.55-44.42,2.94-66.61,1.3-26.52-1.96-52.53-6.68-76.41-19.41-10.52-5.61-19.41-12.99-26.22-22.68.36-.5.72-1,1.08-1.5Z"/>
        <path class="cls-1" d="m454.22,269.65c4.21-1.43,7.62.08,10.9.58,20.42,3.08,39.97-1.68,59.35-6.67,34.44-8.87,67.28-21.73,96.61-42.35,3.48-2.45,5.58-1.9,8.21,1.19,11.56,13.56,8.08,35.66-7.47,47.16-9.34,6.91-19.96,10.64-31.11,13.3-28.81,6.88-58.12,6.23-87.33,5.17-13.01-.47-25.84-4.08-37.84-9.62-4.23-1.95-8.52-4.13-11.32-8.75Z"/>
        <path class="cls-1" d="m34.39,241.38c28.22,10.5,56.61,4.64,84.82,4.1,17.48-.34,34.96-.14,52.45-.1,5.76.01,9.63,2.17,11.55,8.33,1.46,4.68,4.49,8.96,7.29,13.11,2.2,3.27,1.57,4.7-1.85,6.34-14.17,6.79-29.25,10.94-44.67,12.16-20.87,1.65-41.94,1.99-62.53-3.5-18.2-4.86-34.7-12.27-44.05-30.08-1.5-2.86-3.23-5.72-3.01-10.35Z"/>
        <path class="cls-4" d="m537.29,325.08c.42.06.82-.01,1.2-.21-.39.15-.79.22-1.2.21Z"/>
        <path class="cls-5" d="m181.85,333.25c.23-.21.45-.2.65.02,0,0-.34.28-.34.28l-.31-.3Z"/>
      </g>
      <path class="cls-3" d="m566.17,94.94s-8.51,10.52-50.92,0c-42.41-10.52-24.36-44.53-24.36-44.53-41.89,3.19-56.89-14.54-61.46-32.88-7.58,2.2-15.07,4.89-22.48,8.13-4.04,1.77-3.92,2.6-1.17,5.58,24.15,26.17,32.25,57.72,30.39,92.47-.34,6.37-3.85,9.58-9.82,9.73-8.5.21-11.24-2.3-11.04-11.13.37-15.91-.18-31.81-6.26-46.67-12.27-29.98-34.65-49.99-64.48-61.63-21.16-8.26-43.25-9.33-65.4-5.07-14.44,2.77-28.25,7.74-41.03,16.48,6.54,5.34,12.44,10.71,17.51,16.98,19.82,24.54,28.41,52.61,26.97,83.95-.09,1.92-.85,3.32-2.13,4.59-2.94,2.92-6.42,5.06-10.52,3.41-5.81-2.35-8.46-7.11-8.38-13.4.31-23.98-6.17-45.83-21.67-64.34-19.58-23.37-44.12-39.71-74.58-43.58-29.69-3.77-56.8,4.92-79.55,24.96-17.69,15.59-26.62,35.39-26.33,59.07.13,10.43,2.26,20.64,5.34,30.55,5.72,18.36,17.01,32.75,33.5,42.47,14.58,8.59,31.06,12.76,47.7,13,45.93.66,91.88.07,137.82-.02,1.96.09,3.92.27,5.89.27,66.51.02,133.02.02,199.52.02,7.62,0,15.24.22,22.79-1.3,26.58-5.36,47.96-17.37,60.26-40.42-21.72-15.64-6.12-46.68-6.12-46.68Z"/>
      <path class="cls-2" d="m630.99,154.68c-22.23,4.84-40.06-2.22-40.06-2.22-4.88,8.62-11.3,16.38-19.13,23.4-19.45,17.46-41.95,28.21-68.03,28.3-118.55.43-237.11.13-355.66.28-9.47.01-18.8-1.18-27.76-3.35-39.44-9.56-66.92-32.45-77.56-72.84-1.18-4.49-3.03-4.49-6.45-2.79-14.33,7.11-23.94,18.4-28.07,33.68-7.03,25.99,7.42,52.09,33.75,62.22,14.78,5.69,29.86,5.36,45.5,4.51,24.6-1.33,49.26-2.31,73.96-2.04,22.9.25,44.38,6.41,66,12.75,14.45,4.24,28.91,8.6,44.08,9.8,23.42,1.85,45.54-4.92,67.86-10.07,12.92-2.99,25.82-6.75,39.1-5.18,11.78,1.39,23.42,4.23,35,6.95,21.06,4.94,41.75,11.91,66.04,10.9,3.42-.31,9.05.4,14.73-.56,13.89-2.35,27.54-5.69,40.93-9.93,29.21-9.24,57.42-20.72,81.17-40.77,9.31-7.86,17.22-17.34,16.72-30.35-.18-4.54-.9-8.76-2.1-12.68Z"/>
      <path class="cls-3" d="m600.69,309.83c-111.89,20.98-162.42-14.31-162.42-14.31-95.05,64.41-235.91,0-235.91,0-50.63,31.93-143.07,8.98-143.07,8.98,0,0,58.5,67.37,256.64,66.17,198.14-1.2,284.77-60.84,284.77-60.84Z"/>
      <path class="cls-3" d="m563.08,43.74c-10.32,6.68-20.69,13.25-30.93,20.1-4.46,2.99-8.3,3-11.85-1.57-.59-7.77-2.36-15.72-1.49-23.26,1.2-10.49,8.66-14.42,18.2-13.04,7.56,1.09,14.92,4.39,22.27,7.1,4.59,1.69,7.46,4.81,3.8,10.68Z"/>
      <path class="cls-3" d="m634.17,53.81c-.95,2.18-5.22,6.78-6.35,6.32-13.07-5.29-26.55-10.23-38.29-17.69-4.94-3.14,1.43-9.69,5.69-11.33l38.95-18.28s10.74,16.29,0,40.97Z"/>
      <path class="cls-3" d="m636.12,107.64c-1.51,1.04-4.95,5.41-8.03,5.18-11.53-.86-23.09-2.67-34.3-5.44-2.42-.6-5.67-7.42-4.7-10,4.06-10.79,12.27-18.51,24.29-20.13,14-1.89,23.21,9.48,22.73,30.39Z"/>
      <path class="cls-6" d="m120.33,25.69S8.07,176.55,265.94,178.2h-125.97s-69.5-3.04-74.49-79.61c0,0-6.2-51.69,54.86-72.9Z"/>
    </g>
  </g>
</svg>